<?xml version="1.0" encoding="utf-8"?>
<!-- Generator: Adobe Illustrator 21.1.0, SVG Export Plug-In . SVG Version: 6.00 Build 0)  -->
<svg version="1.1" id="Layer_1" xmlns="http://www.w3.org/2000/svg" xmlns:xlink="http://www.w3.org/1999/xlink" x="0px" y="0px"
	 viewBox="0 0 1280 1024" style="enable-background:new 0 0 1280 1024;" xml:space="preserve">
<style type="text/css">
	.st0{fill:#cb101e;}
	.st1{fill:#fff;}
</style>
<image style="display:none;overflow:visible;" width="768" height="768" xlink:href="لوكو الجامعة.png"  transform="matrix(1 0 0 1 259.5877 127.99)">
</image>
<path class="st0" d="M329.2,327.4l309.5,185.3L357.6,417c-7.5,21.1-12.2,44.2-14.8,71l-64.4-5.2
	C285.3,422.9,303.1,371.4,329.2,327.4z"/>
<path class="st0" d="M957.1,327.4L647.6,512.7L928.7,417c7.5,21.1,12.2,44.2,14.8,71l64.4-5.2C1001,422.9,983.2,371.4,957.1,327.4z"
	/>
<path class="st1" d="M369.3,446.6l270.3,67.2l-277.7-23.7C363.9,473.6,366.2,458.5,369.3,446.6z"/>
<path class="st1" d="M917.9,446.6l-270.3,67.2l277.7-23.7C923.3,473.6,920.9,458.5,917.9,446.6z"/>
<path class="st1" d="M424.6,515.2c2,109.8,62.3,181.3,163.8,212.2l-15.7,62c-126.4-38.7-204-129.7-212.4-274.2H424.6z"/>
<path class="st1" d="M863.5,515.2c-2,109.8-62.3,181.3-163.8,212.2l15.7,62c126.4-38.7,204-129.7,212.4-274.2H863.5z"/>
<path class="st0" d="M278.3,515.2H342c2.6,129.7,76.6,245.9,224.3,292.2l-14.8,60.2C388.8,824.8,282.3,687.1,278.3,515.2z"/>
<path class="st0" d="M1009.1,515.2h-63.7c-2.6,129.7-76.6,245.9-224.3,292.2l14.8,60.2C898.6,824.8,1005.1,687.1,1009.1,515.2z"/>
<g>
	<g>
		<path class="st0" d="M352.5,324c2.6-3.2,3.9-4.7,6.6-7.8c7.5,5.8,15,11.6,22.5,17.5c2.6,1.5,3.6,1.3,5.5-0.8c3.5-4,5.3-5.9,9-9.8
			c1.9-2,2-2.9,0-5.2c-0.9-0.8-1.3-1.2-2.2-2c-2.6,2.7-3.9,4-6.4,6.8c-3.2-2.7-4.8-4-7.9-6.7c5.4-5.8,8.1-8.6,13.7-14.1
			c3,2.8,4.5,4.3,7.5,7.1c-0.2,0.2-0.2,0.2-0.4,0.4c0.5,0.5,0.7,0.7,1.2,1.1c7.2,6.8,7.8,13.8,1.9,20.1c-3,3.2-4.5,4.8-7.5,8.2
			c-5.8,6.5-13.3,7.1-21.4,1.2C365.7,333.6,361.3,330.4,352.5,324z"/>
		<path class="st0" d="M401,294.5c-10.7-10.9-21.4-21.7-32.2-32.6c3.1-2.9,4.7-4.3,7.8-7.1c4.6,4.9,6.9,7.3,11.4,12.2
			c5.1-4.5,7.7-6.7,12.9-10.9c7.3-5.9,16.2-4.6,21.9,2.8c3.2,4.2,4.9,6.3,8.1,10.5c0.1-0.1,0.2-0.2,0.4-0.3c2.5,3.3,3.8,4.9,6.3,8.2
			c-13.2,9.8-25.6,20.7-37.3,32.2c-3-2.8-4.5-4.3-7.5-7.1C396,299.2,397.7,297.6,401,294.5z M423.8,275c-3.1-3.8-4.7-5.7-7.8-9.5
			c-2.7-3.3-5.4-3.8-8.1-1.6c-5.2,4.2-7.7,6.4-12.8,10.8c5.1,5.5,7.6,8.2,12.7,13.6C414.1,282.7,417.3,280.1,423.8,275z"/>
		<path class="st0" d="M450.1,255.9c-3.3-5-5-7.5-8.3-12.5c3.1-2,4.7-3,7.8-5c3.2,5.1,4.8,7.6,8,12.7c3.4-2.1,5.1-3.2,8.6-5.2
			c-4.4-7.6-6.6-11.3-11.1-18.9c3.2-1.9,4.8-2.8,8.1-4.6c4.2,7.7,6.3,11.5,10.6,19.2c3.4-1.9,5.1-2.8,8.6-4.6
			c-4.4-8.6-8.8-17.2-13.2-25.7c3.3-1.7,5-2.6,8.4-4.2c5.7,11.8,11.3,23.6,17,35.4c-20.4,10.3-39.3,22-57.8,35.4
			c-2.5-3.3-3.8-4.9-6.3-8.1C438.1,264,442.1,261.2,450.1,255.9z"/>
		<path class="st0" d="M507.2,255.3c-1.7-3.8-2.6-5.7-4.3-9.5c4.1-1.9,6.1-2.8,10.2-4.5c1.4-0.6,2.2-1.4,2.2-2.4
			c0.1-0.6,0-1.4-0.4-2.2c-0.4-1.1-0.7-1.6-1.1-2.7c-0.7,0.3-1,0.4-1.7,0.7c-7.1,2.9-14.6-0.5-18.5-9.1c-1.3-2.8-1.9-4.3-3.2-7.1
			c-3.8-8.4-1-16.8,7-20.1c4.2-1.7,6.4-2.6,10.6-4.2c3.3,9,6.7,18.1,10,27.1c0.2-0.1,0.2-0.1,0.4-0.2c1.4,3.9,2.1,5.8,3.6,9.7
			c-0.2,0.1-0.2,0.1-0.4,0.1c0.2,0.6,0.3,0.9,0.6,1.5c3.4,9.3,1.3,15.8-5.7,18.8C512.8,252.8,510.9,253.6,507.2,255.3z M503.2,207
			c-0.9,0.4-1.3,0.5-2.2,0.9c-3,1.2-3.7,3.8-2.1,7.7c0.9,2.2,1.4,3.3,2.3,5.4c1.7,3.9,3.9,5.3,6.8,4.1c0.8-0.3,1.2-0.5,2.1-0.8
			C507.3,217.4,506,214,503.2,207z"/>
		<path class="st0" d="M518.1,221.2c3.9-1.5,5.9-2.2,9.8-3.5c-4.8-14.4-9.6-28.9-14.4-43.3c3.6-1.2,5.5-1.8,9.1-3
			c5.4,17.8,10.9,35.7,16.3,53.5c-6.9,2.2-10.4,3.4-17.3,5.9C520.2,227,519.5,225.1,518.1,221.2z"/>
		<path class="st0" d="M552.6,221c-3.1,0.8-4.7,1.3-7.8,2.2c-5.1-17.9-10.2-35.9-15.3-53.8c3.7-1.1,5.5-1.6,9.2-2.5
			C543.3,184.9,547.9,202.9,552.6,221z"/>
		<path class="st0" d="M595.1,173.4c1,9.6,2,19.2,2.9,28.8c0.2,0,0.3,0,0.5-0.1c0.4,4.1,0.6,6.2,1,10.3c-3.4,0.4-5,0.5-8.4,1
			c-1.3-10.6-2-15.8-3.4-26.4c-8.4,5.9-9.1,19-8.7,28.3c-3.2,0.6-4.9,0.9-8.1,1.5C568.4,198.6,574.4,177,595.1,173.4z M570.7,159.9
			c3.8-0.6,5.7-0.9,9.5-1.5c0.6,4.1,0.8,6.1,1.4,10.2c-3.7,0.5-5.5,0.8-9.2,1.4C571.7,166,571.4,163.9,570.7,159.9z M584,157.9
			c3.7-0.5,5.6-0.7,9.3-1.1c0.4,4.1,0.6,6.2,1,10.3c-3.6,0.4-5.5,0.6-9.1,1.1C584.8,164,584.5,161.9,584,157.9z"/>
		<path class="st0" d="M598,202.2c6.9-0.7,10.4-1,17.3-1.4c-0.5-9.6-0.9-19.3-1.4-28.9c3.6-0.2,5.4-0.2,8.9-0.3
			c0.2,9.7,0.5,19.3,0.7,29c0.2,0,0.2,0,0.4,0c0.1,4.1,0.1,6.2,0.2,10.3c-10.1,0.2-15.1,0.6-25.1,1.6
			C598.6,208.4,598.4,206.3,598,202.2z M605.1,218.4c3.1-0.3,4.7-0.4,7.8-0.6c0.2,4.2,0.4,6.3,0.6,10.5c-3,0.2-4.5,0.3-7.5,0.6
			C605.6,224.7,605.4,222.6,605.1,218.4z M616.1,217.7c3.1-0.2,4.7-0.2,7.8-0.3c0.1,4.2,0.1,6.3,0.2,10.5c-3,0.1-4.5,0.1-7.5,0.3
			C616.4,224,616.3,221.9,616.1,217.7z"/>
		<path class="st0" d="M623.5,200.5c4.1-0.1,6.1-0.1,10.2-0.1c0.1-9.7,0.1-19.3,0.2-29c3.6,0,5.4,0.1,8.9,0.2
			c-0.3,9.7-0.6,19.3-0.9,29c0.2,0,0.2,0,0.4,0c-0.1,4.1-0.2,6.2-0.3,10.3c-7.3-0.2-10.9-0.3-18.2-0.1
			C623.7,206.7,623.6,204.7,623.5,200.5z M634,154.7c3.7,0,5.6,0.1,9.4,0.2c-0.1,4.1-0.2,6.2-0.3,10.3c-3.6-0.1-5.5-0.2-9.1-0.2
			C634,160.9,634,158.9,634,154.7z"/>
		<path class="st0" d="M680.5,175c-1.3,9.6-2.7,19.1-4,28.7c0.2,0,0.2,0,0.4,0.1c-0.6,4.1-0.9,6.1-1.4,10.2
			c-11.4-1.4-22.5-2.4-33.9-3c0.1-4.1,0.2-6.2,0.3-10.3c5.7,0.2,8.6,0.3,14.3,0.8c-0.2-0.5-0.6-1.2-1.1-1.8
			c-1.7-3.2-2.4-6.7-2.2-10.7c0.4-6.7,3.1-11.6,8.2-14.3c2-1,5-1.5,8.8-1C674.2,174.1,676.3,174.4,680.5,175z M657.6,155.7
			c3.8,0.3,5.7,0.4,9.4,0.8c-0.4,4.1-0.6,6.2-1,10.3c-3.7-0.4-5.5-0.5-9.2-0.8C657.2,161.9,657.3,159.8,657.6,155.7z M668.5,201.3
			c0.8-6.9,1.2-10.3,2-17.2c-0.9-0.1-1.3-0.2-2.2-0.2c-4.1-0.5-6.4,1.4-6.8,5.6C661,194.5,663.5,198.4,668.5,201.3z M670.9,156.9
			c3.8,0.4,5.6,0.6,9.4,1.2c-0.5,4.1-0.8,6.1-1.4,10.2c-3.6-0.5-5.5-0.7-9.1-1.1C670.2,163,670.4,161,670.9,156.9z"/>
		<path class="st0" d="M676.5,203.7c6.9,1,10.3,1.6,17.2,2.9c1.8-9.5,3.7-19,5.5-28.4c3.5,0.7,5.3,1.1,8.8,1.9
			c-2.1,9.4-4.2,18.9-6.2,28.3c0.2,0,0.2,0.1,0.4,0.1c-0.9,4-1.3,6-2.2,10.1c-9.9-2.3-14.9-3.2-24.9-4.6
			C675.7,209.8,676,207.8,676.5,203.7z M689.3,159.4c3.7,0.6,5.6,0.9,9.3,1.6c-0.7,4.1-1.1,6.1-1.9,10.1c-3.6-0.7-5.4-1-9-1.6
			C688.3,165.5,688.6,163.5,689.3,159.4z M702.4,161.7c3.7,0.7,5.5,1.1,9.2,2c-0.9,4-1.3,6-2.2,10.1c-3.6-0.8-5.4-1.2-9-1.9
			C701.2,167.8,701.6,165.8,702.4,161.7z"/>
		<path class="st0" d="M701.8,208.3c4,0.9,6,1.4,10,2.4c3.7-14.8,7.5-29.5,11.2-44.3c3.7,1,5.5,1.5,9.1,2.5
			c-5.1,18-10.1,35.9-15.2,53.9c-6.9-2-10.4-2.9-17.4-4.5C700.4,214.4,700.9,212.4,701.8,208.3z"/>
		<path class="st0" d="M730.5,227.1c-3.1-1-4.6-1.5-7.7-2.5c5.4-17.9,10.8-35.7,16.2-53.6c3.6,1.1,5.5,1.7,9.1,2.9
			C742.2,191.7,736.4,209.4,730.5,227.1z"/>
		<path class="st0" d="M792.8,211c-4.4,8.6-8.8,17.2-13.1,25.8c0.2,0.1,0.3,0.1,0.4,0.2c-1.9,3.7-2.8,5.5-4.7,9.2
			c-3.1-1.6-4.7-2.4-7.9-3.9c4.6-9.6,6.9-14.4,11.5-24c-10.4,0.2-18.2,10.7-22.9,18.7c-3.1-1.3-4.6-2-7.7-3.3
			C756.3,216.7,773.3,202.5,792.8,211z M779.1,186c3.6,1.6,5.4,2.4,9,4.1c-1.7,3.7-2.6,5.6-4.3,9.3c-3.5-1.6-5.2-2.4-8.7-4
			C776.6,191.7,777.5,189.8,779.1,186z M791.7,191.8c3.5,1.7,5.3,2.6,8.7,4.4c-1.9,3.7-2.8,5.5-4.7,9.2c-3.4-1.7-5.1-2.6-8.5-4.2
			C789,197.4,789.9,195.5,791.7,191.8z"/>
		<path class="st0" d="M779.7,236.8c5.4,2.8,8,4.2,13.3,7.2c1.5,0.9,1.7,0.7,2.6,0.9c1.6-5.7,2-11.8,0.2-17.3
			c3.9-3.5,5.9-5.2,9.9-8.6c3.4,1.3,6.3,2.7,8.9,4.2c8.5,5.1,10.3,11.3,5.8,18.1c-2.8,4.3-7.8,7.6-14.6,10.5
			c2.3,1.4,3.4,2.2,5.7,3.7c-2.3,3.4-3.4,5.2-5.7,8.6c-2.1-1.4-3.2-2.1-5.3-3.4c-3.7-2.4-4.2-2.7-5.5-4.8c-1.8,0.1-2.7-0.2-6.8-2.6
			c-5.2-3-7.8-4.4-13.1-7.1C776.9,242.3,777.8,240.5,779.7,236.8z M804.6,242.5c3.8-1.5,6.4-3,7.4-4.6c1.4-2.2,0.3-4.3-3.2-6.5
			c-1.1-0.6-1.6-0.9-2.7-1.4C806.9,235.8,806.2,238.8,804.6,242.5z"/>
		<path class="st0" d="M814.2,269.7c-3.5-2.4-5.2-3.6-8.8-6c2.3-3.4,3.4-5.2,5.7-8.6c3.7,2.4,5.5,3.6,9.1,6.2
			c3.1-4.3,4.6-6.5,7.7-10.8c5.4-7.6,14.1-9.3,21.4-3.8c3.8,2.9,5.7,4.4,9.5,7.5c-6.6,8-13.3,15.9-19.9,23.9
			c-6.3,7.6-14.5,9.1-21,4.3c-3.3-2.5-5-3.7-8.4-6.1C811.4,273.7,812.3,272.3,814.2,269.7z M822.5,272.9c0.7,0.5,1.1,0.8,1.8,1.3
			c2.6,1.9,5.1,1.2,7.7-2.1c5-6.4,7.5-9.6,12.6-16c-0.8-0.6-1.1-0.9-1.9-1.4c-2.8-2.1-5.4-1.4-7.9,2
			C829.8,263.1,827.4,266.4,822.5,272.9z"/>
		<path class="st0" d="M838.7,288.5c12.2-14.1,24.5-28.2,36.7-42.3c3.2,2.7,4.7,4,7.9,6.8c-10.3,11.2-20.6,22.4-30.9,33.7
			c0.2,0.2,0.3,0.2,0.5,0.4c-2.8,3-4.2,4.6-7,7.6C843,292.2,841.6,291,838.7,288.5z"/>
		<path class="st0" d="M874.1,307.5c3.7-3.3,5.5-5,9.1-8.3c3.2-2.9,3.5-5.5,1-8c-4.1-4.2-6.2-6.2-10.5-10.2c2.9-2.9,4.3-4.4,7.2-7.4
			c4.3,4,6.4,6,10.5,10.2c6.7,6.7,6.3,15.8-0.8,21.9c-4,3.5-6.1,5.2-10.1,8.6c0.1,0.1,0.2,0.2,0.3,0.4c-3.2,2.7-4.7,4-7.9,6.7
			c-8.8-9.5-18-18.6-27.7-27.2c2.8-3,4.2-4.6,7-7.6C859.9,293.3,867.2,300.3,874.1,307.5z M853.3,310.5c2.5,2.5,3.8,3.7,6.3,6.3
			c-3.1,2.9-4.6,4.3-7.7,7.1c-2.4-2.5-3.6-3.7-6.1-6.1C848.8,314.9,850.3,313.4,853.3,310.5z"/>
		<path class="st0" d="M880.7,314.4c3.2,3.4,4.7,5.2,7.8,8.7c12-9.5,24-19,35.9-28.6c2.9,3.3,4.3,5,7.1,8.3
			c-15,11.3-30.1,22.5-45.1,33.8c-5.3-6.4-8.1-9.5-13.6-15.5C876,318.5,877.5,317.1,880.7,314.4z"/>
		<path class="st0" d="M896.7,349.6c-2.3-3-3.5-4.5-5.8-7.4c15.3-10.9,30.6-21.9,45.9-32.8c2.8,3.5,4.1,5.2,6.9,8.8
			C928,328.6,912.4,339.1,896.7,349.6z"/>
	</g>
</g>
<g>
	<g>
		<path class="st1" d="M473.7,365.4c-1.7,2.1-2.5,3.1-4.2,5.3c-6.6-5-10-7.5-16.6-12.6c3,5,4.5,7.4,7.6,12.2
			c-1.2,1.6-1.7,2.3-2.9,3.9c-5.6-1.4-8.5-2-14.3-3.1c7,4.6,10.5,6.9,17.4,11.4c-1.5,2.2-2.2,3.2-3.7,5.5
			c-8.9-5.5-17.9-11-26.8-16.5c2.1-3.1,3.1-4.6,5.2-7.6c6.8,1.1,10.1,1.8,16.7,3.3c-3.5-5.7-5.2-8.6-8.5-14.5c2.2-2.9,3.3-4.3,5.5-7
			C457.4,352.2,465.6,358.8,473.7,365.4z"/>
		<path class="st1" d="M461,338.4c-1.9,2.2-2.9,3.3-4.8,5.6c-1.8-1.5-2.6-2.2-4.4-3.7c1.9-2.3,2.9-3.5,4.9-5.7
			C458.5,336.1,459.3,336.9,461,338.4z M481.1,356.7c-1.6,1.9-2.4,2.8-4,4.7c-7.2-6.1-10.8-9.2-18.1-15.3c1.8-2.1,2.7-3.2,4.5-5.2
			C470.5,347.2,474,350.4,481.1,356.7z"/>
		<path class="st1" d="M496.5,340.5c-1.7,1.7-2.6,2.5-4.3,4.2c-0.7-0.7-1-1.1-1.7-1.8c0,0.6,0,1.2-0.1,1.9c0,0.7-0.1,1.2-0.2,1.7
			c-0.1,0.5-0.3,1-0.5,1.5c-0.2,0.4-0.6,0.9-1,1.4c-1.5,1.6-3.5,2.1-6,1.6c-2.5-0.6-5.2-2.1-7.9-4.6c-1.5-1.4-2.7-2.8-3.5-4.2
			c-0.8-1.4-1.3-2.8-1.6-4.2c-0.2-1.3-0.2-2.5,0.2-3.8c0.3-1.2,0.9-2.3,1.8-3.2c0.8-0.8,1.5-1.4,2.2-1.7c0.7-0.3,1.6-0.6,2.6-0.9
			c-2.8-2.9-4.2-4.4-7-7.3c1.9-2,2.9-2.9,4.9-4.9C481.7,324.2,489.1,332.4,496.5,340.5z M487.7,340c-3.2-3.4-4.8-5-8.1-8.4
			c-0.4,0.1-0.8,0.3-1.2,0.6c-0.4,0.3-0.8,0.6-1.1,0.8c-1.1,1.1-1.5,2.4-1.1,3.9c0.3,1.4,1.3,2.9,2.9,4.5c1.7,1.6,3.1,2.6,4.2,2.9
			c1.2,0.3,2.2,0,3.1-1c0.4-0.4,0.7-0.9,0.9-1.5C487.5,341.2,487.6,340.6,487.7,340z"/>
		<path class="st1" d="M512.6,326.1c-1.8,1.5-2.7,2.2-4.5,3.7c-0.6-0.8-0.9-1.2-1.5-2c0,0.6-0.1,1.2-0.2,1.8
			c-0.1,0.7-0.2,1.2-0.3,1.6c-0.2,0.5-0.4,1-0.6,1.4c-0.3,0.4-0.6,0.8-1.1,1.3c-1.6,1.4-3.6,1.7-6,0.9c-2.4-0.8-4.9-2.6-7.3-5.4
			c-1.4-1.6-2.4-3.1-3.1-4.5c-0.7-1.5-1.1-2.9-1.2-4.3c-0.1-1.3,0-2.5,0.4-3.7c0.4-1.2,1.1-2.2,2-3c0.8-0.7,1.6-1.2,2.3-1.5
			c0.7-0.3,1.6-0.5,2.6-0.6c-2.5-3.2-3.8-4.8-6.3-8c2-1.7,3.1-2.6,5.1-4.3C499.5,308.4,506,317.3,512.6,326.1z M504.1,324.7
			c-2.9-3.7-4.3-5.5-7.2-9.2c-0.4,0.1-0.8,0.2-1.2,0.4c-0.5,0.2-0.8,0.5-1.1,0.7c-1.1,1-1.6,2.2-1.4,3.7c0.2,1.5,1.1,3.1,2.5,4.8
			c1.5,1.8,2.8,2.9,3.9,3.3c1.1,0.4,2.1,0.2,3.1-0.6c0.4-0.3,0.7-0.8,1-1.3C503.9,325.9,504,325.3,504.1,324.7z"/>
		<path class="st1" d="M520.6,319.9c-1.8,1.4-2.7,2.1-4.5,3.5c-6.4-9-12.8-18-19.2-27c2.1-1.6,3.1-2.4,5.2-4
			C508.3,301.6,514.4,310.8,520.6,319.9z"/>
		<path class="st1" d="M532,312.7c-2.8,1.9-5.5,2.4-8.2,1.7c-2.7-0.8-5.1-2.8-7.3-6.1c-2.1-3.3-3.1-6.4-2.8-9.5
			c0.3-3,1.8-5.6,4.6-7.4c2.5-1.7,5-2.1,7.2-1.1c2.2,0.9,4.2,3,6,6.3c0.5,0.9,0.8,1.4,1.3,2.4c-4.3,2.7-6.5,4-10.7,7
			c0.6,0.9,1.3,1.6,1.9,2.1c0.6,0.5,1.3,0.7,1.9,0.8c0.6,0.1,1.3,0.1,1.9-0.1c0.6-0.2,1.3-0.5,1.9-0.9c0.6-0.4,1.1-0.8,1.5-1.3
			c0.4-0.5,0.8-1,1.1-1.6c0.3-0.5,0.5-1,0.7-1.5c0.2-0.5,0.3-0.9,0.4-1.2c0.2-0.1,0.3-0.2,0.5-0.3c1.2,2.2,1.8,3.3,3,5.4
			c-0.3,0.5-0.5,0.9-0.7,1.2c-0.2,0.4-0.6,0.8-1,1.4c-0.4,0.5-0.8,1-1.3,1.4C533.4,311.7,532.8,312.2,532,312.7z M525.7,298
			c-0.8-1.4-1.7-2.2-2.5-2.6c-0.9-0.4-1.8-0.3-2.8,0.3c-1,0.7-1.5,1.6-1.6,2.7c-0.1,1.1,0.2,2.3,0.9,3.6
			C522.1,300.4,523.3,299.6,525.7,298z"/>
		<path class="st1" d="M552.7,299.9c-4.2-9.5-6.3-14.2-10.6-23.6c-2.7,1.4-4.1,2.1-6.8,3.6c-1.1-2.2-1.6-3.3-2.7-5.5
			c7.9-4.3,11.8-6.3,19.9-9.8c0.9,2.3,1.3,3.4,2.2,5.7c-2.8,1.2-4.1,1.8-6.9,3.1c4,9.6,6,14.4,9.9,23.9
			C555.8,298.3,554.8,298.9,552.7,299.9z"/>
		<path class="st1" d="M574.2,291.1c-3,1.1-5.6,1-8-0.4c-2.4-1.4-4.3-3.9-5.7-7.7c-1.4-3.7-1.7-7-0.9-9.9c0.8-2.9,2.7-5,5.7-6.1
			c2.7-1,5.1-0.8,7,0.6c1.9,1.4,3.4,4,4.4,7.6c0.3,1,0.5,1.6,0.8,2.6c-4.6,1.5-6.9,2.4-11.4,4.2c0.4,1,0.9,1.9,1.4,2.5
			c0.5,0.6,1.1,1,1.7,1.3c0.6,0.2,1.2,0.4,1.8,0.3c0.6,0,1.3-0.2,2-0.4c0.6-0.2,1.1-0.5,1.7-0.9c0.5-0.4,1-0.8,1.3-1.3
			c0.3-0.4,0.6-0.8,0.9-1.3c0.3-0.4,0.5-0.8,0.6-1.1c0.2-0.1,0.3-0.1,0.5-0.2c0.7,2.4,1.1,3.6,1.8,6c-0.3,0.4-0.7,0.7-0.9,1
			c-0.3,0.3-0.7,0.7-1.2,1.1c-0.5,0.4-1,0.8-1.5,1.1C575.7,290.5,575,290.8,574.2,291.1z M571,275.3c-0.5-1.5-1.1-2.6-1.9-3.2
			c-0.8-0.6-1.6-0.7-2.7-0.3c-1,0.4-1.7,1.1-2,2.2c-0.3,1.1-0.2,2.3,0.2,3.8C567.2,276.8,568.5,276.3,571,275.3z"/>
		<path class="st1" d="M591.2,285.6c-1.3,0.4-2.6,0.5-3.8,0.3c-1.2-0.2-2.4-0.6-3.5-1.4c-1.1-0.8-2.1-1.8-3-3.2
			c-0.9-1.4-1.6-3.1-2.2-5.2c-0.6-2.2-0.9-4.2-0.8-6c0.1-1.7,0.4-3.3,1.1-4.6c0.6-1.2,1.5-2.3,2.6-3.1c1.1-0.8,2.3-1.4,3.6-1.8
			c1-0.3,2-0.4,3.1-0.4c1.1,0,2.2,0.3,3.3,0.7c0.5,2.5,0.8,3.8,1.4,6.4c-0.3,0.1-0.4,0.1-0.7,0.2c-0.3-0.2-0.6-0.5-1-0.7
			c-0.4-0.3-0.8-0.5-1.2-0.7c-0.5-0.2-1-0.3-1.5-0.4c-0.5-0.1-1.1,0-1.7,0.2c-1.4,0.4-2.3,1.4-2.7,2.9c-0.4,1.5-0.3,3.4,0.2,5.6
			c0.6,2.4,1.5,4,2.5,4.9c1.1,0.9,2.2,1.2,3.5,0.9c0.6-0.2,1.2-0.4,1.6-0.8c0.4-0.3,0.8-0.7,1.1-1.1c0.3-0.4,0.5-0.8,0.7-1.2
			c0.2-0.4,0.3-0.7,0.5-1c0.3-0.1,0.4-0.1,0.7-0.2c0.5,2.5,0.8,3.8,1.4,6.4c-0.3,0.3-0.5,0.6-0.9,0.9c-0.3,0.3-0.7,0.6-1,0.9
			c-0.4,0.3-0.9,0.6-1.3,0.8C592.4,285.2,591.9,285.4,591.2,285.6z"/>
		<path class="st1" d="M613.9,280c-2.1,0.3-3.1,0.5-5.1,0.9c-0.7-4.8-1.1-7.2-1.8-12c-0.2-1-0.3-1.9-0.5-2.9c-0.2-1-0.4-1.6-0.7-2.1
			c-0.3-0.5-0.6-0.8-1-1c-0.4-0.2-0.9-0.2-1.5-0.1c-0.5,0.1-0.9,0.3-1.3,0.6c-0.4,0.3-0.8,0.8-1.3,1.4c1.2,6.8,1.8,10.2,3,17
			c-2,0.4-3,0.6-5.1,1.1c-2.2-11-4.5-22.1-6.7-33.1c2.3-0.5,3.5-0.8,5.8-1.3c0.8,4.8,1.3,7.1,2.1,11.9c0.7-1.2,1.5-2.2,2.3-3
			c0.8-0.8,1.7-1.2,2.8-1.4c1.9-0.3,3.4,0.2,4.6,1.6c1.2,1.4,2,3.6,2.3,6.5C612.7,270.6,613.1,273.7,613.9,280z"/>
		<path class="st1" d="M633.1,278.1c-2.1,0.1-3.1,0.2-5.2,0.3c-0.3-4.8-0.5-7.3-0.8-12.1c-0.1-1-0.2-2-0.3-2.9
			c-0.1-1-0.3-1.7-0.5-2.1c-0.2-0.5-0.5-0.9-0.9-1.1c-0.4-0.2-0.9-0.3-1.5-0.2c-0.5,0-0.9,0.2-1.3,0.5c-0.4,0.3-0.9,0.7-1.4,1.3
			c0.6,6.9,0.9,10.3,1.6,17.2c-2,0.2-3.1,0.3-5.1,0.6c-1.1-9.7-1.7-14.6-2.8-24.3c2.3-0.3,3.4-0.4,5.7-0.7c0.1,1.1,0.1,1.6,0.2,2.7
			c0.8-1.2,1.7-2.1,2.5-2.7c0.8-0.7,1.8-1.1,2.9-1.1c1.9-0.1,3.3,0.5,4.4,2.1c1.1,1.5,1.6,3.8,1.8,6.8
			C632.6,268.5,632.8,271.7,633.1,278.1z"/>
		<path class="st1" d="M642,249.9c-2.4,0-3.7,0-6.1,0.1c-0.1-2.4-0.1-3.6-0.2-5.9c2.5-0.1,3.7-0.1,6.2-0.1
			C642,246.3,642,247.5,642,249.9z M642,277.8c-2.1,0-3.1,0-5.1,0.1c-0.3-9.8-0.4-14.7-0.7-24.4c2.3-0.1,3.4-0.1,5.7-0.1
			C641.9,263.1,641.9,268,642,277.8z"/>
		<path class="st1" d="M653.9,278.8c-1.4-0.1-2.6-0.4-3.7-0.9c-1.1-0.6-2.1-1.4-2.9-2.4c-0.8-1.1-1.4-2.4-1.9-4
			c-0.5-1.6-0.7-3.5-0.7-5.7c0-2.3,0.3-4.3,0.9-6c0.6-1.6,1.3-3,2.3-4c0.9-1,2-1.7,3.3-2.2c1.2-0.4,2.5-0.6,3.9-0.5
			c1,0.1,2,0.3,3,0.7c1,0.4,2,1,2.9,1.7c-0.2,2.6-0.3,3.9-0.5,6.5c-0.3,0-0.4,0-0.7-0.1c-0.2-0.3-0.4-0.6-0.7-1
			c-0.3-0.4-0.6-0.7-1-1c-0.4-0.3-0.8-0.6-1.3-0.9c-0.5-0.2-1.1-0.4-1.7-0.4c-1.4-0.1-2.6,0.5-3.4,1.9c-0.8,1.3-1.3,3.1-1.3,5.4
			c-0.1,2.5,0.3,4.3,1,5.5c0.7,1.2,1.8,1.9,3.1,2c0.7,0,1.2,0,1.8-0.2c0.5-0.2,1-0.4,1.3-0.7c0.4-0.3,0.7-0.6,1-0.9
			c0.3-0.3,0.5-0.6,0.7-0.8c0.3,0,0.4,0,0.7,0.1c-0.2,2.6-0.3,3.9-0.5,6.5c-0.3,0.2-0.7,0.4-1.1,0.6c-0.4,0.2-0.8,0.4-1.2,0.5
			c-0.5,0.2-1,0.3-1.4,0.4C655.2,278.8,654.7,278.8,653.9,278.8z"/>
		<path class="st1" d="M671.1,277.3c-0.4,0.4-0.8,0.7-1.1,1c-0.3,0.3-0.7,0.6-1.2,0.9c-0.5,0.3-1,0.5-1.4,0.6
			c-0.5,0.1-1.1,0.1-1.8,0c-1.4-0.2-2.6-1-3.4-2.6s-1.2-3.4-1-5.6c0.1-1.8,0.5-3.2,1.1-4.3c0.6-1.1,1.4-1.9,2.5-2.4
			c1-0.6,2.3-0.9,3.7-1c1.4-0.1,2.9-0.1,4.5,0c0-0.1,0-0.1,0-0.1c0.2-1.3-0.1-2.3-0.7-2.9c-0.7-0.6-1.7-1-3.2-1.2
			c-0.7-0.1-1.4,0-2.4,0.2c-0.9,0.2-1.8,0.5-2.7,1c-0.2,0-0.3,0-0.5,0c0.2-2.3,0.3-3.5,0.5-5.9c0.6-0.2,1.5-0.3,2.8-0.5
			c1.3-0.2,2.6-0.1,3.8,0c3.1,0.4,5.3,1.5,6.6,3.1c1.2,1.6,1.6,3.8,1.2,6.7c-1,6.6-1.5,9.8-2.4,16.4c-2-0.4-3-0.5-5.1-0.8
			C670.9,278.8,670.9,278.3,671.1,277.3z M671.5,273.5c0.3-2,0.4-3,0.6-5c-0.9,0-1.7,0-2.2,0c-0.6,0-1.1,0.1-1.7,0.3
			c-0.5,0.2-0.9,0.5-1.2,0.9c-0.3,0.4-0.5,1-0.6,1.8c-0.1,1.1,0,1.9,0.4,2.4c0.4,0.5,1,0.8,1.8,0.9c0.5,0.1,0.9,0,1.5-0.3
			C670.6,274.4,671.1,274,671.5,273.5z"/>
		<path class="st1" d="M684.6,282.4c-2-0.4-3-0.7-5.1-1.1c1.8-11.1,3.7-22.2,5.5-33.3c2.3,0.5,3.5,0.7,5.8,1.2
			C688.8,260.3,686.7,271.3,684.6,282.4z"/>
		<path class="st1" d="M705.9,289c-2.8-1-4.7-2.7-5.8-5.2c-1-2.5-1.1-5.7-0.1-9.6c2-8,3-12,5-20c2.5,0.7,3.7,1.1,6.1,1.9
			c-2.1,7.7-3.2,11.6-5.4,19.4c-0.6,2.2-0.7,3.9-0.5,5.1c0.3,1.2,1.1,2.1,2.3,2.5c1.3,0.4,2.3,0.3,3.2-0.5c0.9-0.8,1.7-2.3,2.4-4.5
			c2.4-7.7,3.6-11.5,6-19.1c2.4,0.9,3.6,1.3,6.1,2.3c-2.7,7.8-4,11.6-6.6,19.4c-1.3,3.7-3,6.3-5.2,7.8
			C711.3,289.8,708.8,290,705.9,289z"/>
		<path class="st1" d="M733.3,300c-1.9-1-2.9-1.5-4.9-2.4c1.8-4.4,2.8-6.6,4.6-11.1c0.4-0.9,0.7-1.8,1-2.7c0.3-0.9,0.5-1.6,0.5-2.1
			c0-0.6-0.1-1.1-0.3-1.5c-0.3-0.4-0.7-0.7-1.2-1c-0.4-0.2-0.9-0.3-1.4-0.3c-0.5,0-1.1,0.1-1.8,0.4c-2.5,6.4-3.7,9.6-6.2,16
			c-2-0.9-2.9-1.3-4.9-2.1c3.3-9.1,4.9-13.7,8.2-22.8c2.2,0.9,3.3,1.4,5.4,2.4c-0.4,1-0.6,1.5-1,2.5c1.3-0.6,2.4-1,3.5-1.1
			c1.1-0.2,2.1,0,3.1,0.5c1.8,0.8,2.8,2.2,3.1,4.1c0.3,1.9-0.2,4.2-1.4,6.9C737.2,291.4,735.9,294.2,733.3,300z"/>
		<path class="st1" d="M754.1,279.9c-2.3-1.3-3.4-1.9-5.7-3.1c1-2.1,1.5-3.2,2.5-5.3c2.3,1.2,3.5,1.9,5.8,3.2
			C755.7,276.8,755.2,277.9,754.1,279.9z M741.7,304.5c-1.9-1.1-2.9-1.6-4.8-2.6c4.1-8.7,6.1-13.1,10.2-21.8
			c2.1,1.1,3.2,1.7,5.3,2.9C748.1,291.5,746,295.8,741.7,304.5z"/>
		<path class="st1" d="M772.1,295.3c-7.4,6.5-11,9.8-18,16.7c-2-1.3-3.1-2-5.1-3.3c2.5-9.8,3.6-14.7,5.5-24.7
			c2.2,1.3,3.3,1.9,5.5,3.3c-1.7,6.4-2.5,9.6-4.4,16c4.4-4.7,6.6-7,11.2-11.6C768.9,293.1,770,293.8,772.1,295.3z"/>
		<path class="st1" d="M768.3,323c-2.7-2.1-4.2-4.6-4.6-7.4c-0.3-2.9,0.5-6,2.7-9.4c2.1-3.3,4.5-5.4,7.3-6.3
			c2.8-0.9,5.6-0.3,8.3,1.8c2.5,1.9,3.8,4.2,3.8,6.8c0.1,2.6-1.1,5.3-3.3,8.2c-0.6,0.9-1,1.3-1.6,2.1c-4.1-3.4-6.2-5-10.4-8.1
			c-0.6,1-0.9,1.8-1.1,2.6c-0.2,0.8-0.2,1.5,0,2.2c0.2,0.7,0.4,1.3,0.9,1.8c0.4,0.6,0.9,1.1,1.6,1.6c0.5,0.4,1.1,0.8,1.7,1
			c0.6,0.3,1.3,0.4,1.9,0.5c0.5,0.1,1.1,0.1,1.6,0.1c0.5,0,0.9,0,1.3,0c0.2,0.2,0.3,0.2,0.5,0.4c-1.5,2-2.2,2.9-3.7,4.9
			c-0.5-0.1-1-0.2-1.4-0.3c-0.4-0.1-1-0.3-1.6-0.5c-0.6-0.2-1.2-0.5-1.8-0.8C769.7,324,769,323.5,768.3,323z M778.9,311.4
			c0.9-1.3,1.3-2.5,1.4-3.5c0-1-0.4-1.9-1.4-2.6c-1-0.7-2-0.9-3-0.6c-1,0.3-2,1.1-2.9,2.3C775.3,308.7,776.5,309.5,778.9,311.4z"/>
		<path class="st1" d="M797.3,324.8c-0.2-0.1-0.2-0.2-0.4-0.4c-0.1-0.2-0.3-0.5-0.6-0.9c-0.3-0.4-0.7-0.7-1.1-1.1
			c-0.5-0.5-1.1-0.8-1.8-1.1c-0.7-0.3-1.4-0.6-2.1-0.8c-4,4.9-6.1,7.4-10.1,12.3c-1.8-1.6-2.6-2.3-4.4-3.8
			c5.8-7.5,8.8-11.3,14.6-18.9c2,1.7,2.9,2.5,4.9,4.2c-0.9,1.1-1.3,1.6-2.2,2.6c0.4,0,1-0.1,1.7-0.1c0.7,0,1.3,0,1.8,0.1
			c0.5,0.1,1.1,0.2,1.8,0.5c0.6,0.2,1.1,0.6,1.5,0.9c0.2,0.1,0.3,0.3,0.5,0.5c0.2,0.2,0.3,0.4,0.5,0.5
			C800.1,321.7,799.2,322.7,797.3,324.8z"/>
		<path class="st1" d="M791.7,343.6c-1-1-1.8-2.1-2.5-3.2s-1.1-2.2-1.4-3.1c1.7-1.9,2.5-2.8,4.1-4.7c0.1,0.1,0.2,0.2,0.4,0.3
			c0,0.4,0.1,0.9,0.1,1.4c0.1,0.5,0.2,1.1,0.4,1.8c0.2,0.6,0.5,1.3,0.8,2c0.4,0.7,0.8,1.3,1.4,1.9c0.6,0.6,1.3,1,1.9,1.3
			c0.7,0.2,1.3,0.1,1.8-0.4c0.4-0.4,0.6-0.8,0.5-1.2c0-0.4-0.3-1-0.7-1.9c-0.2-0.4-0.6-1-1-1.6c-0.4-0.6-0.7-1.2-1-1.8
			c-0.7-1.5-1-3-0.8-4.4c0.2-1.4,0.9-2.8,2.1-4.2c0.7-0.8,1.5-1.4,2.4-1.8c0.9-0.4,1.9-0.6,3-0.6c1.1,0,2.2,0.3,3.4,0.9
			c1.2,0.6,2.3,1.4,3.4,2.5c1.1,1.1,1.9,2.2,2.6,3.3c0.6,1.1,1.1,2.2,1.4,3.2c-1.7,1.7-2.6,2.5-4.3,4.2c-0.1-0.2-0.2-0.2-0.4-0.4
			c0-0.3-0.1-0.7-0.2-1.3c-0.1-0.6-0.2-1.1-0.4-1.6c-0.2-0.6-0.4-1.2-0.8-1.8c-0.3-0.6-0.8-1.2-1.3-1.7c-0.7-0.7-1.4-1.1-2.1-1.3
			c-0.7-0.2-1.3-0.1-1.7,0.4c-0.4,0.4-0.5,0.8-0.5,1.3c0,0.5,0.3,1.2,0.8,2.1c0.3,0.5,0.6,1.1,1,1.7c0.4,0.6,0.7,1.3,1,1.9
			c0.6,1.5,0.8,2.8,0.6,4.1c-0.2,1.3-1,2.6-2.2,3.8c-0.8,0.8-1.7,1.4-2.7,1.7c-1,0.4-2,0.5-3.1,0.5c-1.1-0.1-2.2-0.4-3.3-0.9
			C793.9,345.5,792.8,344.7,791.7,343.6z"/>
		<path class="st1" d="M825,338.6c-1.9-2.2-2.9-3.3-4.9-5.4c1.7-1.6,2.5-2.4,4.2-4c2,2.2,3,3.3,5,5.6
			C827.6,336.3,826.8,337.1,825,338.6z M804.8,356.6c-1.6-1.9-2.4-2.8-4.1-4.6c6.9-6.5,10.3-9.8,17.2-16.4c1.8,2,2.7,3,4.5,5.1
			C815.3,347.1,811.8,350.2,804.8,356.6z"/>
		<path class="st1" d="M812.4,366.4c-1.6-2-2.3-3.8-2.1-5.5c0.2-1.7,1.4-3.5,3.5-5.3c3.4-2.9,5-4.3,8.4-7.2c-0.7-0.8-1-1.2-1.7-2
			c1.5-1.4,2.3-2,3.9-3.4c0.7,0.8,1,1.2,1.7,2c2.1-1.8,3.1-2.6,5.1-4.4c1.8,2.2,2.7,3.3,4.5,5.5c-2.1,1.7-3.2,2.6-5.3,4.3
			c1.7,2.1,2.5,3.2,4.2,5.3c-1.6,1.2-2.5,1.9-4.1,3.1c-1.6-2.1-2.4-3.1-4.1-5.2c-2.6,2.1-3.9,3.2-6.5,5.3c-0.6,0.5-1.2,1-1.7,1.4
			c-0.5,0.4-0.8,0.8-1.1,1.3c-0.3,0.4-0.4,0.9-0.3,1.4c0,0.5,0.3,1.1,0.8,1.8c0.2,0.3,0.6,0.6,1,0.9c0.5,0.3,0.8,0.6,1.1,0.6
			c0.1,0.2,0.2,0.3,0.3,0.4c-1.7,1.3-2.5,1.9-4.1,3.2c-0.6-0.4-1.2-0.9-1.7-1.4C813.7,368,813.1,367.3,812.4,366.4z"/>
		<path class="st1" d="M848.9,375.6c-11.3,2.5-22.3,5.4-33.4,8.6c-1.6-2.2-2.3-3.3-3.9-5.4c3.7-1.2,5.6-1.8,9.3-3
			c5.8-7.8,8.5-11.8,13.9-20.1c1.8,2.3,2.7,3.5,4.5,6c-3.7,5-5.6,7.5-9.4,12.3c5.9-2,8.9-2.9,14.9-4.7
			C846.4,371.8,847.3,373.1,848.9,375.6z"/>
	</g>
</g>
<path class="st0" d="M564.5,582h43.7v77.4c0,1.7,0.1,3.4,0.3,5c2.2,18,12.2,26,28.2,28c4.6,0.6,9.2,0.1,13.8-0.3
	c15.6-1.4,25.5-7.3,29.5-19.6c1.2-3.5,1.6-7.3,1.6-11V582h40.8l-1.2,77.1c0.7,28.4-10.7,48.5-34.6,60.1
	c-29.9,12.3-60.5,12.4-91.9-2.3c-0.3-0.1-0.6-0.3-0.8-0.4c-18-11.1-27.6-28.2-27.5-52.4L564.5,582z"/>
<path class="st0" d="M564.5,533.2l157.7,0.4l0.4,35.8h-59.5l0.9,106.1c-3.8,1.8-11.5,3-16.4,3.6c-2.8,0.4-5.7,0.3-8.5-0.2
	c-4.4-0.8-11-2.1-14.5-3.8l0.4-105.2l-60.6-0.4V533.2z"/>
<g>
	<g>
		<path d="M598.1,871.7c-3.1-0.4-4.7-0.6-7.8-1c0.4-13.2,0.7-26.4,1.1-39.7c3.1,0.4,4.6,0.6,7.6,1
			C598.7,845.3,598.4,858.5,598.1,871.7z"/>
		<path d="M610.1,853.2c-2.5-3.2-3.7-6.1-3.6-8.7c0.1-6.5,4.5-11.1,15.2-10.4c3.2,0.2,4.8,0.3,7.9,0.4c0,2.9,0,4.4-0.1,7.3
			c-3.4-0.2-5.1-0.3-8.6-0.5c-4-0.3-6.6,0.4-6.6,3.9c0,2.9,2,4.6,6.2,4.8c3.6,0.2,5.3,0.3,8.9,0.5c0,2.9,0,4.4-0.1,7.3
			c-3.6-0.2-5.4-0.3-8.9-0.5c-4.2-0.3-6.3,1.1-6.3,4.1c0,3.1,1.2,4.6,6.5,5c3.5,0.2,5.2,0.3,8.7,0.5c0,2.9,0,4.4-0.1,7.3
			c-3.2-0.1-4.9-0.2-8.1-0.5c-10.6-0.7-15.1-6.6-15-12.9C606.2,858,607.5,855.4,610.1,853.2z"/>
		<path d="M658.7,834.9c0,5.6,0,8.4,0.1,14c1.1,0,1.6,0,2.7-0.1c2.7-0.1,3.2-1.2,3.2-2.6c0-4.6-0.1-6.9-0.1-11.5
			c3.1-0.1,4.7-0.2,7.7-0.4c0,4.2,0.1,6.3,0.1,10.5c0.1,7-4.2,11.2-11.7,11.4c-6.3,0.2-9.4,0.2-15.7,0.2c0,7.3,0,11,0,18.3
			c-3.1,0-4.7-0.1-7.8-0.1c0.1-13.2,0.1-26.5,0.2-39.7c3.1,0.1,4.6,0.1,7.7,0.1c0,5.7,0,8.5,0,14.2c2.4,0,3.6,0,6,0
			c0-5.7,0-8.5,0-14.2C654.1,835,655.6,835,658.7,834.9z"/>
		<path d="M705.5,856.3c0.2,1.6,0.2,2.8,0.2,3.5c0.2,6.5-4.7,11.6-12.3,12.5c-7.5,0.8-12.7-3.2-12.8-9.7c0-0.7,0.1-1.9,0.1-3.5
			c0.3-5.5,0.4-8.2,0.6-13.7c0.4-9,5-12.2,11.2-12.9c6.2-0.7,10.9,1.4,11.7,10.4C704.7,848.2,705,850.9,705.5,856.3z M688.5,860.6
			c0.1,2.8,2.1,4.6,4.7,4.3c2.6-0.3,4.5-2.4,4.5-5c-0.4-6.4-0.7-9.5-1.1-15.9c-0.2-3.2-1.5-4.6-3.9-4.3c-2.3,0.3-3.6,2-3.7,5.2
			C688.8,851.2,688.7,854.4,688.5,860.6z"/>
	</g>
</g>
<g>
	<g>
		<path class="st1" d="M615.4,791.5c-9-0.7-13.5-1.2-22.4-2.5c0-2,0-3,0.1-5c1.9-1.2,3.6-2.4,5.1-3.6c1.5-1.1,2.9-2.2,4-3.3
			c1.5-1.4,2.6-2.7,3.3-3.8c0.7-1.1,1-2.3,1-3.6c0-1.4-0.4-2.5-1.2-3.4c-0.8-0.8-2-1.4-3.5-1.5c-0.8-0.1-1.5-0.1-2.2,0
			c-0.7,0.1-1.4,0.3-2.1,0.5c-0.7,0.2-1.3,0.5-1.8,0.7c-0.5,0.3-0.9,0.5-1.1,0.6c-0.2,0-0.4,0-0.6-0.1c0-2.7,0-4,0.1-6.6
			c0.9-0.3,2.2-0.5,4-0.7c1.8-0.2,3.6-0.2,5.2,0c3.6,0.4,6.3,1.5,8.1,3.2c1.8,1.8,2.8,4.1,2.7,7c0,1.8-0.4,3.5-1.3,5.2
			c-0.9,1.6-2.3,3.4-4.3,5.2c-1.2,1.1-2.4,2-3.6,2.9c-1.2,0.8-2,1.4-2.5,1.7c5.2,0.6,7.7,0.9,12.9,1.3
			C615.4,788.1,615.4,789.2,615.4,791.5z"/>
		<path class="st1" d="M641.8,777.5c0,2.6-0.2,4.9-0.6,6.9c-0.4,2-1.1,3.6-2,4.9c-0.9,1.3-2.1,2.3-3.6,2.9c-1.5,0.6-3.3,0.9-5.5,0.8
			c-2.2-0.1-4-0.5-5.5-1.3c-1.5-0.8-2.7-1.8-3.6-3.3c-0.9-1.4-1.6-3.1-2-5.1c-0.4-2-0.6-4.3-0.6-6.9c0-2.7,0.2-5,0.7-6.9
			c0.4-1.9,1.1-3.5,2.1-4.8c1-1.3,2.2-2.2,3.7-2.8c1.5-0.6,3.3-0.8,5.4-0.7c2.2,0.1,4,0.5,5.5,1.2c1.5,0.7,2.7,1.8,3.6,3.1
			c0.9,1.3,1.6,3,2,5C641.6,772.7,641.8,774.9,641.8,777.5z M634.1,777.3c0-3.8-0.3-6.4-0.9-7.9s-1.7-2.3-3.1-2.4
			c-1.5-0.1-2.5,0.7-3.1,2.1c-0.6,1.5-1,4.1-1,7.9c0,3.7,0.3,6.3,0.9,7.9s1.7,2.4,3.1,2.5s2.5-0.7,3.1-2.2
			C633.8,783.7,634.1,781.1,634.1,777.3z"/>
		<path class="st1" d="M667.6,792c-8.1,0.5-12.1,0.7-20.2,0.7c0-2.1,0-3.2,0-5.3c2.6,0,3.9,0,6.5-0.1c0-6.4,0-9.7,0-16.1
			c-2.6,0.1-3.9,0.1-6.4,0.1c0-2,0-3,0-5c0.9,0,1.9-0.1,2.8-0.2c0.9-0.1,1.7-0.3,2.2-0.6c0.7-0.3,1.2-0.8,1.5-1.4
			c0.4-0.6,0.6-1.3,0.6-2.1c2.7-0.1,4-0.1,6.7-0.2c0,10.1,0.1,15.1,0.1,25.2c2.5-0.1,3.8-0.2,6.3-0.3
			C667.6,788.8,667.6,789.9,667.6,792z"/>
		<path class="st1" d="M696,782c-1.6,0.2-2.5,0.3-4.1,0.6c0,2.9,0,4.3,0.1,7.2c-3,0.4-4.4,0.6-7.4,0.9c0-2.9,0-4.3-0.1-7.2
			c-5.4,0.6-8,0.8-13.4,1.2c0-2.3,0-3.4,0-5.7c5.2-7.4,7.8-11.2,13-18.8c3-0.3,4.5-0.5,7.6-0.9c0.1,7.1,0.1,10.7,0.2,17.8
			c1.6-0.2,2.5-0.3,4.1-0.6C695.9,778.7,695.9,779.8,696,782z M684.4,777.9c0-4.1-0.1-6.2-0.1-10.4c-3,4.5-4.6,6.7-7.6,11.1
			C679.8,778.4,681.4,778.3,684.4,777.9z"/>
	</g>
</g>
</svg>
